G04*
G04 #@! TF.GenerationSoftware,Altium Limited,Altium Designer,24.0.1 (36)*
G04*
G04 Layer_Physical_Order=2*
G04 Layer_Color=16711680*
%FSLAX44Y44*%
%MOMM*%
G71*
G04*
G04 #@! TF.SameCoordinates,FE54D643-1383-4C3F-89A0-025996B94EA8*
G04*
G04*
G04 #@! TF.FilePolarity,Positive*
G04*
G01*
G75*
%ADD13C,1.5700*%
%ADD14R,1.5700X1.5700*%
%ADD16C,1.5240*%
%ADD17R,2.7000X0.5000*%
%ADD18R,2.7000X1.0000*%
%ADD19C,0.5080*%
D13*
X142700Y249400D02*
D03*
X168100D02*
D03*
X193500D02*
D03*
X218900D02*
D03*
X244300D02*
D03*
X825100D02*
D03*
X850500D02*
D03*
X875900D02*
D03*
X901300D02*
D03*
X926700D02*
D03*
X952100Y40600D02*
D03*
X926700D02*
D03*
X901300D02*
D03*
X875900D02*
D03*
X850500D02*
D03*
X269700D02*
D03*
X244300D02*
D03*
X218900D02*
D03*
X193500D02*
D03*
X168100D02*
D03*
D14*
X269700Y249400D02*
D03*
X952100D02*
D03*
X825100Y40600D02*
D03*
X142700D02*
D03*
D16*
X1044800Y240000D02*
D03*
Y50000D02*
D03*
X50000Y240000D02*
D03*
Y50000D02*
D03*
D17*
X232400Y156530D02*
D03*
Y134530D02*
D03*
X322400Y156530D02*
D03*
Y134530D02*
D03*
X412400Y156530D02*
D03*
Y134530D02*
D03*
X502400Y156530D02*
D03*
Y134530D02*
D03*
X592400Y156530D02*
D03*
Y134530D02*
D03*
X682400Y156530D02*
D03*
Y134530D02*
D03*
X772400Y156530D02*
D03*
Y134530D02*
D03*
X862400Y156530D02*
D03*
Y134530D02*
D03*
D18*
X232400Y145530D02*
D03*
X322400D02*
D03*
X412400D02*
D03*
X502400D02*
D03*
X592400D02*
D03*
X682400D02*
D03*
X772400D02*
D03*
X862400D02*
D03*
D19*
Y134530D02*
X862440Y134490D01*
X874905D02*
X875460Y133935D01*
X901300Y40600D02*
Y108350D01*
X875715Y133935D02*
X901300Y108350D01*
X862440Y134490D02*
X874905D01*
X875460Y133935D02*
X875715D01*
X862400Y156530D02*
X862440Y156570D01*
X874905D02*
X875460Y157125D01*
X899160Y180340D02*
Y247260D01*
X875945Y157125D02*
X899160Y180340D01*
X875460Y157125D02*
X875945D01*
X862440Y156570D02*
X874905D01*
X899160Y247260D02*
X901300Y249400D01*
X785180Y156530D02*
X875900Y247250D01*
X772400Y156530D02*
X785180D01*
X875900Y247250D02*
Y249400D01*
X784950Y134530D02*
X873868Y45612D01*
Y42632D02*
X875900Y40600D01*
X772400Y134530D02*
X784950D01*
X873868Y42632D02*
Y45612D01*
X697320Y134530D02*
X744982Y86868D01*
X804232D01*
X682400Y134530D02*
X697320D01*
X738314Y200660D02*
X801760D01*
X694184Y156530D02*
X738314Y200660D01*
X682400Y156530D02*
X694184D01*
X592400D02*
X592440Y156570D01*
X604905D02*
X605460Y157125D01*
X701040Y251460D02*
X823040D01*
X606705Y157125D02*
X701040Y251460D01*
X605460Y157125D02*
X606705D01*
X592440Y156570D02*
X604905D01*
X193500Y40600D02*
Y107140D01*
X220890Y134530D02*
X232400D01*
X193500Y107140D02*
X220890Y134530D01*
X364490Y100330D02*
X398690Y134530D01*
X304030Y100330D02*
X364490D01*
X398690Y134530D02*
X412400D01*
X305740Y187960D02*
X367918D01*
X399348Y156530D02*
X412400D01*
X367918Y187960D02*
X399348Y156530D01*
X192011Y183909D02*
X219390Y156530D01*
X192011Y183909D02*
Y247911D01*
X219390Y156530D02*
X232400D01*
X220932Y244466D02*
Y247368D01*
X308868Y156530D02*
X322400D01*
X220932Y244466D02*
X308868Y156530D01*
X218900Y249400D02*
X220932Y247368D01*
X698540Y40600D02*
X825100D01*
X804232Y86868D02*
X850500Y40600D01*
X823040Y251460D02*
X825100Y249400D01*
X801760Y200660D02*
X850500Y249400D01*
X604610Y134530D02*
X698540Y40600D01*
X192011Y247911D02*
X193500Y249400D01*
X218900Y40600D02*
Y48630D01*
X304800Y134530D01*
X244300Y40600D02*
X304030Y100330D01*
X244300Y249400D02*
X305740Y187960D01*
X269700Y249400D02*
X367632D01*
X460502Y156530D01*
X304800Y134530D02*
X322400D01*
X592400D02*
X604610D01*
X460502Y156530D02*
X502400D01*
X269700Y40600D02*
X367284D01*
X461214Y134530D01*
X502400D01*
M02*
