G04*
G04 #@! TF.GenerationSoftware,Altium Limited,Altium Designer,24.0.1 (36)*
G04*
G04 Layer_Color=16711935*
%FSLAX44Y44*%
%MOMM*%
G71*
G04*
G04 #@! TF.SameCoordinates,FE54D643-1383-4C3F-89A0-025996B94EA8*
G04*
G04*
G04 #@! TF.FilePolarity,Negative*
G04*
G01*
G75*
%ADD13C,1.5700*%
%ADD14R,1.5700X1.5700*%
%ADD15C,1.7272*%
%ADD20R,2.9032X0.7032*%
%ADD21R,2.9032X1.2032*%
D13*
X142700Y249400D02*
D03*
X168100D02*
D03*
X193500D02*
D03*
X218900D02*
D03*
X244300D02*
D03*
X825100D02*
D03*
X850500D02*
D03*
X875900D02*
D03*
X901300D02*
D03*
X926700D02*
D03*
X952100Y40600D02*
D03*
X926700D02*
D03*
X901300D02*
D03*
X875900D02*
D03*
X850500D02*
D03*
X269700D02*
D03*
X244300D02*
D03*
X218900D02*
D03*
X193500D02*
D03*
X168100D02*
D03*
D14*
X269700Y249400D02*
D03*
X952100D02*
D03*
X825100Y40600D02*
D03*
X142700D02*
D03*
D15*
X1044800Y240000D02*
D03*
Y50000D02*
D03*
X50000Y240000D02*
D03*
Y50000D02*
D03*
D20*
X232400Y156530D02*
D03*
Y134530D02*
D03*
X322400Y156530D02*
D03*
Y134530D02*
D03*
X412400Y156530D02*
D03*
Y134530D02*
D03*
X502400Y156530D02*
D03*
Y134530D02*
D03*
X592400Y156530D02*
D03*
Y134530D02*
D03*
X682400Y156530D02*
D03*
Y134530D02*
D03*
X772400Y156530D02*
D03*
Y134530D02*
D03*
X862400Y156530D02*
D03*
Y134530D02*
D03*
D21*
X232400Y145530D02*
D03*
X322400D02*
D03*
X412400D02*
D03*
X502400D02*
D03*
X592400D02*
D03*
X682400D02*
D03*
X772400D02*
D03*
X862400D02*
D03*
M02*
