G04*
G04 #@! TF.GenerationSoftware,Altium Limited,Altium Designer,24.0.1 (36)*
G04*
G04 Layer_Color=128*
%FSLAX44Y44*%
%MOMM*%
G71*
G04*
G04 #@! TF.SameCoordinates,FE54D643-1383-4C3F-89A0-025996B94EA8*
G04*
G04*
G04 #@! TF.FilePolarity,Positive*
G04*
G01*
G75*
%ADD17R,2.7000X0.5000*%
%ADD22R,2.6000X0.9000*%
G36*
X227150Y141030D02*
Y150030D01*
X221650D01*
Y141030D01*
X227150D01*
D02*
G37*
G36*
X243150D02*
Y150030D01*
X237650D01*
Y141030D01*
X243150D01*
D02*
G37*
G36*
X317150D02*
Y150030D01*
X311650D01*
Y141030D01*
X317150D01*
D02*
G37*
G36*
X333150D02*
Y150030D01*
X327650D01*
Y141030D01*
X333150D01*
D02*
G37*
G36*
X407150D02*
Y150030D01*
X401650D01*
Y141030D01*
X407150D01*
D02*
G37*
G36*
X423150D02*
Y150030D01*
X417650D01*
Y141030D01*
X423150D01*
D02*
G37*
G36*
X497150D02*
Y150030D01*
X491650D01*
Y141030D01*
X497150D01*
D02*
G37*
G36*
X513150D02*
Y150030D01*
X507650D01*
Y141030D01*
X513150D01*
D02*
G37*
G36*
X587150D02*
Y150030D01*
X581650D01*
Y141030D01*
X587150D01*
D02*
G37*
G36*
X603150D02*
Y150030D01*
X597650D01*
Y141030D01*
X603150D01*
D02*
G37*
G36*
X677150D02*
Y150030D01*
X671650D01*
Y141030D01*
X677150D01*
D02*
G37*
G36*
X693150D02*
Y150030D01*
X687650D01*
Y141030D01*
X693150D01*
D02*
G37*
G36*
X767150D02*
Y150030D01*
X761650D01*
Y141030D01*
X767150D01*
D02*
G37*
G36*
X783150D02*
Y150030D01*
X777650D01*
Y141030D01*
X783150D01*
D02*
G37*
G36*
X857150D02*
Y150030D01*
X851650D01*
Y141030D01*
X857150D01*
D02*
G37*
G36*
X873150D02*
Y150030D01*
X867650D01*
Y141030D01*
X873150D01*
D02*
G37*
D17*
X232400Y156530D02*
D03*
Y134530D02*
D03*
X322400Y156530D02*
D03*
Y134530D02*
D03*
X412400Y156530D02*
D03*
Y134530D02*
D03*
X502400Y156530D02*
D03*
Y134530D02*
D03*
X592400Y156530D02*
D03*
Y134530D02*
D03*
X682400Y156530D02*
D03*
Y134530D02*
D03*
X772400Y156530D02*
D03*
Y134530D02*
D03*
X862400Y156530D02*
D03*
Y134530D02*
D03*
D22*
X232400Y145530D02*
D03*
X322400D02*
D03*
X412400D02*
D03*
X502400D02*
D03*
X592400D02*
D03*
X682400D02*
D03*
X772400D02*
D03*
X862400D02*
D03*
M02*
