G04*
G04 #@! TF.GenerationSoftware,Altium Limited,Altium Designer,24.0.1 (36)*
G04*
G04 Layer_Color=65535*
%FSLAX44Y44*%
%MOMM*%
G71*
G04*
G04 #@! TF.SameCoordinates,FE54D643-1383-4C3F-89A0-025996B94EA8*
G04*
G04*
G04 #@! TF.FilePolarity,Positive*
G04*
G01*
G75*
%ADD10C,0.2500*%
%ADD11C,0.2000*%
%ADD12C,0.2540*%
D10*
X291050Y277300D02*
G03*
X291050Y277300I-1250J0D01*
G01*
X973450D02*
G03*
X973450Y277300I-1250J0D01*
G01*
X806250Y12700D02*
G03*
X806250Y12700I-1250J0D01*
G01*
X123850D02*
G03*
X123850Y12700I-1250J0D01*
G01*
D11*
X284950Y263950D02*
Y290650D01*
X127450D02*
X284950D01*
X127450Y263950D02*
Y290650D01*
Y263950D02*
X284950D01*
X967350D02*
Y290650D01*
X809850D02*
X967350D01*
X809850Y263950D02*
Y290650D01*
Y263950D02*
X967350D01*
X809850Y-650D02*
Y26050D01*
Y-650D02*
X967350D01*
Y26050D01*
X809850D02*
X967350D01*
X127450Y-650D02*
Y26050D01*
Y-650D02*
X284950D01*
Y26050D01*
X127450D02*
X284950D01*
D12*
X490220Y11430D02*
Y21587D01*
X495298Y26665D01*
X500377Y21587D01*
Y11430D01*
Y19047D01*
X490220D01*
X505455Y11430D02*
Y21587D01*
X513073D01*
X515612Y19047D01*
Y11430D01*
X523229D02*
X528308D01*
X530847Y13969D01*
Y19047D01*
X528308Y21587D01*
X523229D01*
X520690Y19047D01*
Y13969D01*
X523229Y11430D01*
X546082Y26665D02*
Y11430D01*
X538464D01*
X535925Y13969D01*
Y19047D01*
X538464Y21587D01*
X546082D01*
X558778Y11430D02*
X553699D01*
X551160Y13969D01*
Y19047D01*
X553699Y21587D01*
X558778D01*
X561317Y19047D01*
Y16508D01*
X551160D01*
X586709Y11430D02*
X581630Y16508D01*
Y21587D01*
X586709Y26665D01*
X594326Y19047D02*
X604483D01*
X599405Y24126D02*
Y13969D01*
X609561Y11430D02*
X614640Y16508D01*
Y21587D01*
X609561Y26665D01*
X599443Y261624D02*
X601982Y259085D01*
X607061D01*
X609600Y261624D01*
Y271781D01*
X607061Y274320D01*
X601982D01*
X599443Y271781D01*
X591826Y264163D02*
X586747D01*
X584208Y266702D01*
Y274320D01*
X591826D01*
X594365Y271781D01*
X591826Y269242D01*
X584208D01*
X576591Y261624D02*
Y264163D01*
X579130D01*
X574052D01*
X576591D01*
Y271781D01*
X574052Y274320D01*
X566434Y259085D02*
Y274320D01*
Y266702D01*
X563895Y264163D01*
X558816D01*
X556277Y266702D01*
Y274320D01*
X548660D02*
X543581D01*
X541042Y271781D01*
Y266702D01*
X543581Y264163D01*
X548660D01*
X551199Y266702D01*
Y271781D01*
X548660Y274320D01*
X525807Y259085D02*
Y274320D01*
X533425D01*
X535964Y271781D01*
Y266702D01*
X533425Y264163D01*
X525807D01*
X513111Y274320D02*
X518190D01*
X520729Y271781D01*
Y266702D01*
X518190Y264163D01*
X513111D01*
X510572Y266702D01*
Y269242D01*
X520729D01*
X485180Y274320D02*
X490259Y269242D01*
Y264163D01*
X485180Y259085D01*
X477563Y266702D02*
X467406D01*
X462328Y274320D02*
X457249Y269242D01*
Y264163D01*
X462328Y259085D01*
X455930Y62224D02*
Y46989D01*
X466087D01*
X481322Y62224D02*
X471165D01*
Y46989D01*
X481322D01*
X471165Y54607D02*
X476243D01*
X486400Y62224D02*
Y46989D01*
X494018D01*
X496557Y49528D01*
Y59685D01*
X494018Y62224D01*
X486400D01*
X501635Y44450D02*
X511792D01*
X516870Y62224D02*
Y46989D01*
X524488D01*
X527027Y49528D01*
Y52067D01*
X524488Y54607D01*
X516870D01*
X524488D01*
X527027Y57146D01*
Y59685D01*
X524488Y62224D01*
X516870D01*
X539723D02*
X534645D01*
X532105Y59685D01*
Y49528D01*
X534645Y46989D01*
X539723D01*
X542262Y49528D01*
Y59685D01*
X539723Y62224D01*
X547340Y46989D02*
Y57146D01*
X552419Y62224D01*
X557497Y57146D01*
Y46989D01*
Y54607D01*
X547340D01*
X562575Y46989D02*
Y62224D01*
X570193D01*
X572732Y59685D01*
Y54607D01*
X570193Y52067D01*
X562575D01*
X567654D02*
X572732Y46989D01*
X577811Y62224D02*
Y46989D01*
X585428D01*
X587967Y49528D01*
Y59685D01*
X585428Y62224D01*
X577811D01*
X593046Y44450D02*
X603202D01*
X608281Y62224D02*
Y52067D01*
X613359Y46989D01*
X618437Y52067D01*
Y62224D01*
X623516Y46989D02*
X628594D01*
X626055D01*
Y62224D01*
X623516Y59685D01*
X943611Y228598D02*
X938532D01*
X941072D01*
Y215902D01*
X938532Y213363D01*
X935993D01*
X933454Y215902D01*
X956307Y213363D02*
Y228598D01*
X948689Y220980D01*
X958846D01*
X135891Y233678D02*
X130813D01*
X133352D01*
Y220982D01*
X130813Y218442D01*
X128273D01*
X125734Y220982D01*
X140969Y231138D02*
X143508Y233678D01*
X148587D01*
X151126Y231138D01*
Y228599D01*
X148587Y226060D01*
X146047D01*
X148587D01*
X151126Y223521D01*
Y220982D01*
X148587Y218442D01*
X143508D01*
X140969Y220982D01*
X815191Y73401D02*
X810112D01*
X812652D01*
Y60705D01*
X810112Y58166D01*
X807573D01*
X805034Y60705D01*
X830426Y58166D02*
X820269D01*
X830426Y68323D01*
Y70862D01*
X827887Y73401D01*
X822808D01*
X820269Y70862D01*
X132791Y73361D02*
X127712D01*
X130252D01*
Y60665D01*
X127712Y58126D01*
X125173D01*
X122634Y60665D01*
X137869Y58126D02*
X142947D01*
X140408D01*
Y73361D01*
X137869Y70822D01*
M02*
