M48
;Layer_Color=9474304
;FILE_FORMAT=4:4
METRIC,LZ
;TYPE=PLATED
T01F00S00C1.0200
;TYPE=NON_PLATED
T02F00S00C3.3000
%
T01
X001427Y000406
X001681
X001935
X002189
X002443
X002697
X008251
X008505
X008759
X009013
X009267
X009521
Y002494
X009267
X009013
X008759
X008505
X008251
X002697
X002443
X002189
X001935
X001681
X001427
T02
X0005Y0005
X010448
Y0024
X0005
M30
