G04*
G04 #@! TF.GenerationSoftware,Altium Limited,Altium Designer,24.0.1 (36)*
G04*
G04 Layer_Color=65535*
%FSLAX44Y44*%
%MOMM*%
G71*
G04*
G04 #@! TF.SameCoordinates,3286AFAA-96A6-431E-A46C-018934649B0F*
G04*
G04*
G04 #@! TF.FilePolarity,Positive*
G04*
G01*
G75*
%ADD10C,0.2500*%
%ADD11C,0.2000*%
%ADD12C,0.2540*%
D10*
X123850Y12700D02*
G03*
X123850Y12700I-1250J0D01*
G01*
X973450Y277300D02*
G03*
X973450Y277300I-1250J0D01*
G01*
X291050D02*
G03*
X291050Y277300I-1250J0D01*
G01*
X806250Y12700D02*
G03*
X806250Y12700I-1250J0D01*
G01*
D11*
X127450Y-650D02*
Y26050D01*
Y-650D02*
X284950D01*
Y26050D01*
X127450D02*
X284950D01*
X967350Y263950D02*
Y290650D01*
X809850D02*
X967350D01*
X809850Y263950D02*
Y290650D01*
Y263950D02*
X967350D01*
X284950D02*
Y290650D01*
X127450D02*
X284950D01*
X127450Y263950D02*
Y290650D01*
Y263950D02*
X284950D01*
X809850Y26050D02*
X967350D01*
Y-650D02*
Y26050D01*
X809850Y-650D02*
X967350D01*
X809850D02*
Y26050D01*
D12*
X589280Y274320D02*
Y264163D01*
X584202Y259085D01*
X579123Y264163D01*
Y274320D01*
Y266702D01*
X589280D01*
X574045Y274320D02*
Y264163D01*
X566427D01*
X563888Y266702D01*
Y274320D01*
X556271D02*
X551192D01*
X548653Y271781D01*
Y266702D01*
X551192Y264163D01*
X556271D01*
X558810Y266702D01*
Y271781D01*
X556271Y274320D01*
X533418Y259085D02*
Y274320D01*
X541036D01*
X543575Y271781D01*
Y266702D01*
X541036Y264163D01*
X533418D01*
X520722Y274320D02*
X525801D01*
X528340Y271781D01*
Y266702D01*
X525801Y264163D01*
X520722D01*
X518183Y266702D01*
Y269242D01*
X528340D01*
X492791Y274320D02*
X497870Y269242D01*
Y264163D01*
X492791Y259085D01*
X485174Y266702D02*
X475017D01*
X480095Y261624D02*
Y271781D01*
X469939Y274320D02*
X464860Y269242D01*
Y264163D01*
X469939Y259085D01*
X467357Y29206D02*
X464818Y31745D01*
X459739D01*
X457200Y29206D01*
Y19049D01*
X459739Y16510D01*
X464818D01*
X467357Y19049D01*
X474974Y26667D02*
X480053D01*
X482592Y24128D01*
Y16510D01*
X474974D01*
X472435Y19049D01*
X474974Y21588D01*
X482592D01*
X490209Y29206D02*
Y26667D01*
X487670D01*
X492748D01*
X490209D01*
Y19049D01*
X492748Y16510D01*
X500366Y31745D02*
Y16510D01*
Y24128D01*
X502905Y26667D01*
X507984D01*
X510523Y24128D01*
Y16510D01*
X518140D02*
X523219D01*
X525758Y19049D01*
Y24128D01*
X523219Y26667D01*
X518140D01*
X515601Y24128D01*
Y19049D01*
X518140Y16510D01*
X540993Y31745D02*
Y16510D01*
X533375D01*
X530836Y19049D01*
Y24128D01*
X533375Y26667D01*
X540993D01*
X553689Y16510D02*
X548610D01*
X546071Y19049D01*
Y24128D01*
X548610Y26667D01*
X553689D01*
X556228Y24128D01*
Y21588D01*
X546071D01*
X581620Y16510D02*
X576541Y21588D01*
Y26667D01*
X581620Y31745D01*
X589237Y24128D02*
X599394D01*
X604472Y16510D02*
X609551Y21588D01*
Y26667D01*
X604472Y31745D01*
X410210Y50799D02*
Y66034D01*
X417827D01*
X420367Y63495D01*
Y58417D01*
X417827Y55877D01*
X410210D01*
X425445Y66034D02*
Y50799D01*
Y58417D01*
X435602D01*
Y66034D01*
Y50799D01*
X448298Y66034D02*
X443219D01*
X440680Y63495D01*
Y53338D01*
X443219Y50799D01*
X448298D01*
X450837Y53338D01*
Y63495D01*
X448298Y66034D01*
X455915D02*
X466072D01*
X460994D01*
Y50799D01*
X478768Y66034D02*
X473689D01*
X471150Y63495D01*
Y53338D01*
X473689Y50799D01*
X478768D01*
X481307Y53338D01*
Y63495D01*
X478768Y66034D01*
X486385D02*
Y50799D01*
X494003D01*
X496542Y53338D01*
Y63495D01*
X494003Y66034D01*
X486385D01*
X501620D02*
X506699D01*
X504160D01*
Y50799D01*
X501620D01*
X506699D01*
X521934Y66034D02*
X516856D01*
X514316Y63495D01*
Y53338D01*
X516856Y50799D01*
X521934D01*
X524473Y53338D01*
Y63495D01*
X521934Y66034D01*
X529551D02*
Y50799D01*
X537169D01*
X539708Y53338D01*
Y63495D01*
X537169Y66034D01*
X529551D01*
X554943D02*
X544786D01*
Y50799D01*
X554943D01*
X544786Y58417D02*
X549865D01*
X560022Y48260D02*
X570178D01*
X575257Y66034D02*
Y50799D01*
X582874D01*
X585413Y53338D01*
Y55877D01*
X582874Y58417D01*
X575257D01*
X582874D01*
X585413Y60956D01*
Y63495D01*
X582874Y66034D01*
X575257D01*
X598109D02*
X593031D01*
X590492Y63495D01*
Y53338D01*
X593031Y50799D01*
X598109D01*
X600648Y53338D01*
Y63495D01*
X598109Y66034D01*
X605727Y50799D02*
Y60956D01*
X610805Y66034D01*
X615883Y60956D01*
Y50799D01*
Y58417D01*
X605727D01*
X620962Y50799D02*
Y66034D01*
X628579D01*
X631119Y63495D01*
Y58417D01*
X628579Y55877D01*
X620962D01*
X626040D02*
X631119Y50799D01*
X636197Y66034D02*
Y50799D01*
X643814D01*
X646354Y53338D01*
Y63495D01*
X643814Y66034D01*
X636197D01*
X651432Y48260D02*
X661589D01*
X666667Y66034D02*
Y55877D01*
X671745Y50799D01*
X676824Y55877D01*
Y66034D01*
X681902Y50799D02*
X686981D01*
X684441D01*
Y66034D01*
X681902Y63495D01*
X143511Y73657D02*
X138433D01*
X140972D01*
Y60962D01*
X138433Y58422D01*
X135893D01*
X133354Y60962D01*
X156207Y58422D02*
Y73657D01*
X148589Y66040D01*
X158746D01*
X951589Y73401D02*
X946510D01*
X949050D01*
Y60705D01*
X946510Y58166D01*
X943971D01*
X941432Y60705D01*
X956667Y70862D02*
X959206Y73401D01*
X964285D01*
X966824Y70862D01*
Y68323D01*
X964285Y65784D01*
X961745D01*
X964285D01*
X966824Y63244D01*
Y60705D01*
X964285Y58166D01*
X959206D01*
X956667Y60705D01*
X138431Y229867D02*
X133352D01*
X135892D01*
Y217172D01*
X133352Y214632D01*
X130813D01*
X128274Y217172D01*
X153666Y214632D02*
X143509D01*
X153666Y224789D01*
Y227328D01*
X151127Y229867D01*
X146048D01*
X143509Y227328D01*
X955040Y227327D02*
X949962D01*
X952501D01*
Y214632D01*
X949962Y212092D01*
X947422D01*
X944883Y214632D01*
X960118Y212092D02*
X965197D01*
X962658D01*
Y227327D01*
X960118Y224788D01*
M02*
