G04*
G04 #@! TF.GenerationSoftware,Altium Limited,Altium Designer,24.0.1 (36)*
G04*
G04 Layer_Color=32896*
%FSLAX44Y44*%
%MOMM*%
G71*
G04*
G04 #@! TF.SameCoordinates,3286AFAA-96A6-431E-A46C-018934649B0F*
G04*
G04*
G04 #@! TF.FilePolarity,Positive*
G04*
G01*
G75*
%ADD10C,0.2500*%
%ADD11C,0.2000*%
%ADD12C,0.2540*%
D10*
X580900Y180500D02*
G03*
X580900Y180500I-1250J0D01*
G01*
X670900D02*
G03*
X670900Y180500I-1250J0D01*
G01*
X760900D02*
G03*
X760900Y180500I-1250J0D01*
G01*
X850900D02*
G03*
X850900Y180500I-1250J0D01*
G01*
X220900D02*
G03*
X220900Y180500I-1250J0D01*
G01*
X310900D02*
G03*
X310900Y180500I-1250J0D01*
G01*
X400900D02*
G03*
X400900Y180500I-1250J0D01*
G01*
X490900D02*
G03*
X490900Y180500I-1250J0D01*
G01*
D11*
X591150Y174500D02*
X593650D01*
X571900Y136750D02*
Y161250D01*
X591150Y123500D02*
X593650D01*
X612900Y136750D02*
Y161250D01*
X681150Y174500D02*
X683650D01*
X661900Y136750D02*
Y161250D01*
X681150Y123500D02*
X683650D01*
X702900Y136750D02*
Y161250D01*
X771150Y174500D02*
X773650D01*
X751900Y136750D02*
Y161250D01*
X771150Y123500D02*
X773650D01*
X792900Y136750D02*
Y161250D01*
X861150Y174500D02*
X863650D01*
X841900Y136750D02*
Y161250D01*
X861150Y123500D02*
X863650D01*
X882900Y136750D02*
Y161250D01*
X231150Y174500D02*
X233650D01*
X211900Y136750D02*
Y161250D01*
X231150Y123500D02*
X233650D01*
X252900Y136750D02*
Y161250D01*
X321150Y174500D02*
X323650D01*
X301900Y136750D02*
Y161250D01*
X321150Y123500D02*
X323650D01*
X342900Y136750D02*
Y161250D01*
X411150Y174500D02*
X413650D01*
X391900Y136750D02*
Y161250D01*
X411150Y123500D02*
X413650D01*
X432900Y136750D02*
Y161250D01*
X501150Y174500D02*
X503650D01*
X481900Y136750D02*
Y161250D01*
X501150Y123500D02*
X503650D01*
X522900Y136750D02*
Y161250D01*
D12*
X237938Y205973D02*
Y190738D01*
X230320D01*
X227781Y193277D01*
Y203434D01*
X230320Y205973D01*
X237938D01*
X222703Y203434D02*
X220164Y205973D01*
X215085D01*
X212546Y203434D01*
Y200895D01*
X215085Y198356D01*
X212546Y195816D01*
Y193277D01*
X215085Y190738D01*
X220164D01*
X222703Y193277D01*
Y195816D01*
X220164Y198356D01*
X222703Y200895D01*
Y203434D01*
X220164Y198356D02*
X215085D01*
X327734Y205891D02*
Y190656D01*
X320117D01*
X317577Y193195D01*
Y203352D01*
X320117Y205891D01*
X327734D01*
X312499D02*
X302342D01*
Y203352D01*
X312499Y193195D01*
Y190656D01*
X432466Y205891D02*
Y190656D01*
X424849D01*
X422309Y193195D01*
Y203352D01*
X424849Y205891D01*
X432466D01*
X407074D02*
X412153Y203352D01*
X417231Y198274D01*
Y193195D01*
X414692Y190656D01*
X409613D01*
X407074Y193195D01*
Y195734D01*
X409613Y198274D01*
X417231D01*
X507734Y205891D02*
Y190656D01*
X500117D01*
X497577Y193195D01*
Y203352D01*
X500117Y205891D01*
X507734D01*
X482342D02*
X492499D01*
Y198274D01*
X487421Y200813D01*
X484881D01*
X482342Y198274D01*
Y193195D01*
X484881Y190656D01*
X489960D01*
X492499Y193195D01*
X597734Y205891D02*
Y190656D01*
X590117D01*
X587577Y193195D01*
Y203352D01*
X590117Y205891D01*
X597734D01*
X574882Y190656D02*
Y205891D01*
X582499Y198274D01*
X572342D01*
X687734Y205891D02*
Y190656D01*
X680117D01*
X677577Y193195D01*
Y203352D01*
X680117Y205891D01*
X687734D01*
X672499Y203352D02*
X669960Y205891D01*
X664881D01*
X662342Y203352D01*
Y200813D01*
X664881Y198274D01*
X667421D01*
X664881D01*
X662342Y195734D01*
Y193195D01*
X664881Y190656D01*
X669960D01*
X672499Y193195D01*
X777734Y205891D02*
Y190656D01*
X770117D01*
X767577Y193195D01*
Y203352D01*
X770117Y205891D01*
X777734D01*
X752342Y190656D02*
X762499D01*
X752342Y200813D01*
Y203352D01*
X754881Y205891D01*
X759960D01*
X762499Y203352D01*
X862654Y205891D02*
Y190656D01*
X855036D01*
X852497Y193195D01*
Y203352D01*
X855036Y205891D01*
X862654D01*
X847419Y190656D02*
X842341D01*
X844880D01*
Y205891D01*
X847419Y203352D01*
M02*
