G04*
G04 #@! TF.GenerationSoftware,Altium Limited,Altium Designer,24.0.1 (36)*
G04*
G04 Layer_Physical_Order=2*
G04 Layer_Color=16711680*
%FSLAX44Y44*%
%MOMM*%
G71*
G04*
G04 #@! TF.SameCoordinates,3286AFAA-96A6-431E-A46C-018934649B0F*
G04*
G04*
G04 #@! TF.FilePolarity,Positive*
G04*
G01*
G75*
%ADD13C,1.5700*%
%ADD14R,1.5700X1.5700*%
%ADD16C,1.5240*%
%ADD17R,1.5500X1.0000*%
%ADD18C,0.3810*%
D13*
X269700Y40600D02*
D03*
X244300D02*
D03*
X218900D02*
D03*
X193500D02*
D03*
X168100D02*
D03*
X825100Y249400D02*
D03*
X850500D02*
D03*
X875900D02*
D03*
X901300D02*
D03*
X926700D02*
D03*
X142700D02*
D03*
X168100D02*
D03*
X193500D02*
D03*
X218900D02*
D03*
X244300D02*
D03*
X850500Y40600D02*
D03*
X875900D02*
D03*
X901300D02*
D03*
X926700D02*
D03*
X952100D02*
D03*
D14*
X142700D02*
D03*
X952100Y249400D02*
D03*
X269700D02*
D03*
X825100Y40600D02*
D03*
D16*
X50000Y240000D02*
D03*
Y50000D02*
D03*
X1044800Y240000D02*
D03*
Y50000D02*
D03*
D17*
X605150Y170000D02*
D03*
X579650D02*
D03*
X605150Y128000D02*
D03*
X579650D02*
D03*
X695150Y170000D02*
D03*
X669650D02*
D03*
X695150Y128000D02*
D03*
X669650D02*
D03*
X785150Y170000D02*
D03*
X759650D02*
D03*
X785150Y128000D02*
D03*
X759650D02*
D03*
X875150Y170000D02*
D03*
X849650D02*
D03*
X875150Y128000D02*
D03*
X849650D02*
D03*
X245150Y170000D02*
D03*
X219650D02*
D03*
X245150Y128000D02*
D03*
X219650D02*
D03*
X335150Y170000D02*
D03*
X309650D02*
D03*
X335150Y128000D02*
D03*
X309650D02*
D03*
X425150Y170000D02*
D03*
X399650D02*
D03*
X425150Y128000D02*
D03*
X399650D02*
D03*
X515150Y170000D02*
D03*
X489650D02*
D03*
X515150Y128000D02*
D03*
X489650D02*
D03*
D18*
X218900Y247190D02*
X293228Y172862D01*
X306788D01*
X218900Y247190D02*
Y249400D01*
X306788Y172862D02*
X309650Y170000D01*
X766318Y184658D02*
X828294D01*
X849650Y170000D02*
X853694D01*
X480020Y40600D02*
X515150Y75730D01*
X269700Y40600D02*
X480020D01*
X901300D02*
Y80410D01*
X872551Y40600D02*
X875900D01*
X218900D02*
X282440Y104140D01*
X193500Y40600D02*
X245150Y92250D01*
X901555Y217861D02*
Y249145D01*
X875900Y232264D02*
Y249400D01*
X828294Y184658D02*
X875900Y232264D01*
X853694Y170000D02*
X901555Y217861D01*
X901300Y249400D02*
X901555Y249145D01*
X813190Y212090D02*
X850500Y249400D01*
X695452Y212090D02*
X813190D01*
X615668Y249400D02*
X825100D01*
X579628Y213360D02*
X615668Y249400D01*
X244300Y40600D02*
X290060Y86360D01*
X394970D01*
X875150Y106560D02*
X901300Y80410D01*
X875150Y106560D02*
Y128000D01*
X785150D02*
X872551Y40600D01*
X808550Y82550D02*
X850500Y40600D01*
X669544Y186182D02*
X695452Y212090D01*
X579628Y170000D02*
Y213360D01*
X759460Y177800D02*
X766318Y184658D01*
X669544Y170000D02*
Y186182D01*
X759460Y170000D02*
Y177800D01*
Y170000D02*
X759650D01*
X669544D02*
X669650D01*
X579628D02*
X579650D01*
X605028Y128000D02*
X605150D01*
X695150Y112570D02*
Y128000D01*
Y112570D02*
X725170Y82550D01*
X605028Y62484D02*
Y128000D01*
X725170Y82550D02*
X808550D01*
X605028Y62484D02*
X626912Y40600D01*
X825100D01*
X269700Y249400D02*
X424970D01*
X489650Y184720D01*
X282880Y210820D02*
X378460D01*
X399650Y189630D01*
Y170000D02*
Y189630D01*
X489650Y170000D02*
Y184720D01*
X394970Y86360D02*
X425150Y116540D01*
Y128000D01*
X335280Y114300D02*
Y128000D01*
X325120Y104140D02*
X335280Y114300D01*
X515150Y75730D02*
Y128000D01*
X335150D02*
X335280D01*
X193500Y249400D02*
X217678Y225222D01*
X244300Y249400D02*
X282880Y210820D01*
X217678Y170000D02*
Y225222D01*
Y170000D02*
X219650D01*
X245150Y92250D02*
Y128000D01*
X282440Y104140D02*
X325120D01*
M02*
